<?xml version="1.0" encoding="utf-8"?>
<!-- Generator: Adobe Illustrator 24.1.0, SVG Export Plug-In . SVG Version: 6.00 Build 0)  -->
<svg version="1.1" id="_x30_" xmlns="http://www.w3.org/2000/svg" xmlns:xlink="http://www.w3.org/1999/xlink" x="0px" y="0px"
	 viewBox="0 0 595.3 841.9" style="enable-background:new 0 0 595.3 841.9;" xml:space="preserve">
<style type="text/css">
	.st0{fill:url(#SVGID_1_);stroke:#000000;stroke-width:2;stroke-linecap:round;stroke-linejoin:round;}
	.st1{stroke:#000000;stroke-width:2;stroke-linecap:round;stroke-linejoin:round;}
	.st2{enable-background:new    ;}
	.st3{fill:#FFFFFF;}
</style>
<rect width="595.3" height="841.9"/>
<g id="SPLINE_1_">
	
		<linearGradient id="SVGID_1_" gradientUnits="userSpaceOnUse" x1="304.5443" y1="177.1" x2="304.5443" y2="517.4999" gradientTransform="matrix(1 0 0 1 0 50)">
		<stop  offset="0" style="stop-color:#FF2A00"/>
		<stop  offset="1" style="stop-color:#A01414"/>
	</linearGradient>
	<path class="st0" d="M303.6,242.3c5.9-0.3,13.2-3.7,18.2-6.7c3.5-2.1,11.1-5.2,15-6.6l8.7-1.8l9.1-0.1l8.9,1.8l8.2,3.7l6.9,5.5
		l5.2,7l3.3,8.1l1.4,8.7c0.2,7.7-1.9,18-4.7,25.2c-4.2,10.5-10,22.7-7.4,34.3c2.4,9.6,8.6,19.8,13.5,28.3c11.8,20,14,37.2,5.2,58.9
		c-4.6,11-11.7,23.3-16,34.4l-2,8.1l-0.2,8.1l1.8,8.4c3.2,8.6,8.8,19.9,11.9,28.5l2.8,10.6l1,10.8l-0.9,10.6l-2.7,10.1l-4.3,9.1
		l-5.5,7.8l-6.3,6l-6.6,4l-6.5,1.9l-6.3-0.2c-6.1-1.4-13.3-5.9-18.5-9.3c-9.3-5.8-20.5-12.3-31.7-12.9c-11.2,0.7-22.4,7.2-31.6,13.2
		c-5.1,3.4-12.3,8-18.4,9.4l-6.3,0.3l-6.6-1.8l-6.6-3.9l-6.3-6l-5.6-7.7l-4.4-9.1l-2.8-10.1l-1-10.6l1-10.8l2.7-10.6
		c3.1-8.7,8.5-20,11.7-28.6l1.8-8.4l-0.2-8.1l-2.1-8.1c-4.3-11.1-11.6-23.3-16.2-34.3c-9-21.6-6.9-38.8,4.7-58.9
		c4.8-8.5,11-18.7,13.2-28.4c2.5-11.6-3.4-23.8-7.7-34.3c-2.9-7.2-5.1-17.4-4.9-25.2l1.3-8.7l3.2-8.1l5.1-7l6.8-5.6l8.1-3.8l8.9-1.8
		h9.1l8.7,1.7c3.9,1.4,11.5,4.3,15,6.4C290.4,238.6,297.7,242,303.6,242.3z"/>
</g>
<g id="CIRCLE">
	<path class="st1" d="M257.3,294c0,5.9,4.8,10.6,10.6,10.6s10.6-4.8,10.6-10.6s-4.8-10.6-10.6-10.6S257.3,288.1,257.3,294L257.3,294
		L257.3,294z"/>
</g>
<g id="ELLIPSE">
	<path class="st1" d="M329.9,326.6c0-10.5-11.7-18.9-26.1-18.8s-26,8.6-25.9,19.1c0,10.5,11.7,18.9,26.1,18.8S330,337.1,329.9,326.6
		L329.9,326.6"/>
</g>
<g id="CIRCLE_1_">
	<path class="st1" d="M329,293.7c0,5.9,4.8,10.6,10.6,10.6s10.6-4.8,10.6-10.6s-4.8-10.6-10.6-10.6S329,287.8,329,293.7L329,293.7
		L329,293.7z"/>
</g>
<g id="ELLIPSE_1_">
	<path class="st1" d="M248.5,417.6c12.6,0,22.8-13.4,22.8-30c0-16.5-10.2-30-22.8-30c-12.6,0-22.8,13.4-22.8,30
		C225.7,404.2,235.9,417.6,248.5,417.6L248.5,417.6"/>
</g>
<g id="ELLIPSE_2_">
	<path class="st1" d="M360,417.1c12.6-0.1,22.7-13.6,22.6-30.1s-10.5-29.9-23.1-29.8s-22.7,13.6-22.6,30.1
		C337.1,403.9,347.4,417.2,360,417.1L360,417.1"/>
</g>
<g id="ELLIPSE_3_">
	<path class="st1" d="M253.4,550.2c12.6,0,22.8-13.4,22.8-30c0-16.5-10.2-30-22.8-30s-22.8,13.4-22.8,30
		C230.6,536.8,240.8,550.2,253.4,550.2L253.4,550.2"/>
</g>
<g id="ELLIPSE_4_">
	<path class="st1" d="M356.2,549.8c12.6-0.1,22.7-13.6,22.6-30.1s-10.5-29.9-23.1-29.8S333,503.5,333.1,520
		C333.3,536.6,343.6,549.9,356.2,549.8L356.2,549.8"/>
</g>
<g class="st2">
	<path class="st3" d="M139.5,637.4c0,1-0.3,1.9-1,2.5c-0.7,0.7-1.5,1-2.4,1c-0.6,0-1.2-0.2-1.7-0.5c-0.5-0.3-1-0.8-1.4-1.5
		l-7.4-13.5c-0.7-1.4-1.5-2.4-2.4-3c-0.8-0.6-1.9-0.9-3.3-0.9h-5.5v14.9c0,1.3-0.3,2.4-1,3.2c-0.6,0.8-1.5,1.2-2.6,1.2
		c-1.1,0-2-0.4-2.6-1.2c-0.7-0.8-1-1.8-1-3.2v-39c0-1.3,0.3-2.3,0.9-3c0.6-0.7,1.5-1.1,2.5-1.1h14c4.5,0,7.9,1.2,10.2,3.6
		c2.3,2.4,3.5,5.8,3.5,10.3c0,3.6-0.9,6.6-2.6,9c-1.7,2.3-4.2,3.8-7.4,4.5c1.1,0.3,2,0.9,2.9,1.7c0.8,0.8,1.6,1.9,2.4,3.3l5.1,9.3
		C139.3,635.9,139.5,636.7,139.5,637.4z M129.7,613.2c1.3-1.2,1.9-3.1,1.9-5.6c0-2.6-0.6-4.5-1.9-5.6c-1.3-1.2-3.3-1.8-6-1.8h-9.4
		v14.9h9.4C126.4,615.1,128.4,614.5,129.7,613.2z"/>
	<path class="st3" d="M147.1,639.4c-0.6-0.7-0.9-1.7-0.9-3v-38.8c0-1.3,0.3-2.3,0.9-3c0.6-0.7,1.5-1.1,2.5-1.1h20.2
		c1.1,0,1.9,0.3,2.5,0.9c0.6,0.6,0.9,1.4,0.9,2.5c0,1.1-0.3,2-0.9,2.6c-0.6,0.6-1.4,0.9-2.5,0.9h-16.6v12.9h15.5
		c1.1,0,1.9,0.3,2.5,0.9c0.6,0.6,0.9,1.4,0.9,2.5c0,1.1-0.3,1.9-0.9,2.5c-0.6,0.6-1.4,0.9-2.5,0.9h-15.5v13.7h16.6
		c1.1,0,1.9,0.3,2.5,0.9c0.6,0.6,0.9,1.5,0.9,2.6c0,1.1-0.3,1.9-0.9,2.5c-0.6,0.6-1.4,0.9-2.5,0.9h-20.2
		C148.5,640.5,147.7,640.2,147.1,639.4z"/>
	<path class="st3" d="M180.1,639.4c-0.6-0.7-0.9-1.7-0.9-3v-38.8c0-1.3,0.3-2.3,0.9-3c0.6-0.7,1.5-1.1,2.5-1.1h11.1
		c6.5,0,11.5,2.1,15,6.2c3.6,4.1,5.3,9.9,5.3,17.3c0,7.5-1.8,13.2-5.3,17.4c-3.6,4.1-8.6,6.2-15,6.2h-11.1
		C181.5,640.5,180.7,640.2,180.1,639.4z M193.2,633.5c9.1,0,13.6-5.5,13.6-16.5c0-11-4.5-16.5-13.6-16.5h-6.9v33H193.2z"/>
	<path class="st3" d="M266.1,620.4c1.2,2,1.9,4.4,1.9,7.3c0,4-1.2,7.1-3.6,9.4s-5.7,3.4-9.9,3.4H240c-1.1,0-1.9-0.4-2.5-1.1
		c-0.6-0.7-0.9-1.7-0.9-3v-38.8c0-1.3,0.3-2.3,0.9-3c0.6-0.7,1.5-1.1,2.5-1.1h13.9c4.1,0,7.3,1.1,9.7,3.2c2.3,2.2,3.5,5.2,3.5,9
		c0,2.5-0.6,4.6-1.7,6.5c-1.1,1.8-2.6,3.2-4.6,4C263.1,617,264.9,618.4,266.1,620.4z M243.6,613.3h9.1c5,0,7.4-2.2,7.4-6.6
		c0-2.2-0.6-3.9-1.8-4.9c-1.2-1.1-3.1-1.6-5.6-1.6h-9.1V613.3z M259.4,632.2c1.2-1.1,1.8-2.8,1.8-5.2c0-2.4-0.6-4.1-1.8-5.3
		c-1.2-1.2-3.1-1.7-5.7-1.7h-10.1v13.9h10.1C256.3,633.8,258.2,633.3,259.4,632.2z"/>
	<path class="st3" d="M275.7,639.4c-0.6-0.7-0.9-1.7-0.9-3v-38.8c0-1.3,0.3-2.3,0.9-3c0.6-0.7,1.5-1.1,2.5-1.1h20.2
		c1.1,0,1.9,0.3,2.5,0.9c0.6,0.6,0.9,1.4,0.9,2.5c0,1.1-0.3,2-0.9,2.6c-0.6,0.6-1.4,0.9-2.5,0.9h-16.6v12.9h15.5
		c1.1,0,1.9,0.3,2.5,0.9c0.6,0.6,0.9,1.4,0.9,2.5c0,1.1-0.3,1.9-0.9,2.5c-0.6,0.6-1.4,0.9-2.5,0.9h-15.5v13.7h16.6
		c1.1,0,1.9,0.3,2.5,0.9c0.6,0.6,0.9,1.5,0.9,2.6c0,1.1-0.3,1.9-0.9,2.5c-0.6,0.6-1.4,0.9-2.5,0.9h-20.2
		C277.1,640.5,276.3,640.2,275.7,639.4z"/>
	<path class="st3" d="M343.2,637.1c0,1-0.3,1.9-1,2.6c-0.7,0.7-1.5,1.1-2.4,1.1c-0.6,0-1.2-0.2-1.7-0.6c-0.5-0.4-0.9-1-1.2-1.8
		l-3.4-8.9h-19.7l-3.4,8.9c-0.3,0.8-0.7,1.4-1.2,1.8c-0.5,0.4-1.1,0.6-1.7,0.6c-0.9,0-1.6-0.4-2.4-1.1c-0.7-0.7-1.1-1.6-1.1-2.6
		c0-0.6,0.1-1.2,0.3-1.7l15.5-39.5c0.3-0.9,0.8-1.6,1.5-2c0.7-0.5,1.4-0.7,2.2-0.7c0.8,0,1.5,0.2,2.2,0.7c0.7,0.5,1.2,1.1,1.5,2
		l15.5,39.5C343.1,636,343.2,636.5,343.2,637.1z M331,622.9l-7.4-19.8l-7.4,19.8H331z"/>
	<path class="st3" d="M380.8,637.4c0,1-0.3,1.9-1,2.5c-0.7,0.7-1.5,1-2.4,1c-0.6,0-1.2-0.2-1.7-0.5s-1-0.8-1.4-1.5l-7.4-13.5
		c-0.7-1.4-1.5-2.4-2.4-3s-1.9-0.9-3.3-0.9h-5.5v14.9c0,1.3-0.3,2.4-1,3.2c-0.6,0.8-1.5,1.2-2.6,1.2c-1.1,0-2-0.4-2.6-1.2
		c-0.7-0.8-1-1.8-1-3.2v-39c0-1.3,0.3-2.3,0.9-3c0.6-0.7,1.5-1.1,2.5-1.1h14c4.5,0,7.9,1.2,10.2,3.6c2.3,2.4,3.5,5.8,3.5,10.3
		c0,3.6-0.9,6.6-2.6,9c-1.7,2.3-4.2,3.8-7.4,4.5c1.1,0.3,2,0.9,2.9,1.7c0.8,0.8,1.6,1.9,2.4,3.3l5.1,9.3
		C380.6,635.9,380.8,636.7,380.8,637.4z M371,613.2c1.3-1.2,1.9-3.1,1.9-5.6c0-2.6-0.6-4.5-1.9-5.6c-1.3-1.2-3.3-1.8-6-1.8h-9.4
		v14.9h9.4C367.8,615.1,369.8,614.5,371,613.2z"/>
	<path class="st3" d="M408.2,639.7c-2.6-0.9-4.6-2.1-6.2-3.7c-0.9-0.8-1.3-1.8-1.3-3.2c0-0.9,0.2-1.7,0.7-2.4c0.5-0.7,1-1,1.7-1
		c0.7,0,1.4,0.3,2.3,0.9c1.6,1.4,3.3,2.4,5,3c1.8,0.6,3.7,0.9,5.8,0.9c2.7,0,4.8-0.6,6.3-1.7c1.5-1.1,2.2-2.8,2.2-5
		c0-1.7-0.7-3-2-3.9c-1.4-0.9-3.6-1.8-6.8-2.6c-3.3-0.8-6-1.8-8-2.9c-2.1-1.1-3.6-2.5-4.6-4.3c-1-1.7-1.6-3.9-1.6-6.6
		c0-2.8,0.7-5.2,2-7.4c1.3-2.2,3.1-3.9,5.5-5.1c2.3-1.2,5-1.8,7.9-1.8c5.3,0,9.7,1.7,13,5.1c0.5,0.5,0.8,1,1,1.4
		c0.2,0.5,0.3,1.1,0.3,1.8c0,0.9-0.2,1.7-0.7,2.4c-0.5,0.7-1,1-1.7,1c-0.4,0-0.7-0.1-1-0.2c-0.3-0.1-0.7-0.4-1.3-0.7
		c-1.5-1.3-3-2.3-4.5-3c-1.4-0.6-3.2-1-5.3-1c-2.5,0-4.5,0.6-6,1.8c-1.5,1.2-2.2,2.9-2.2,5.1c0,1.8,0.7,3.2,2,4.2
		c1.3,1,3.5,1.9,6.7,2.7c3.3,0.9,6,1.9,8.1,3c2.1,1.1,3.7,2.5,4.8,4.2c1.1,1.7,1.7,3.8,1.7,6.3c0,2.8-0.6,5.2-1.9,7.3
		c-1.3,2.1-3.1,3.8-5.4,4.9c-2.3,1.2-5,1.8-8,1.8C413.5,641.1,410.7,640.7,408.2,639.7z"/>
	<path class="st3" d="M470.1,636.9c0,1-0.3,1.9-1,2.7c-0.7,0.8-1.4,1.2-2.3,1.2c-0.9,0-1.8-0.5-2.6-1.4l-18.6-20.8v18
		c0,1.3-0.3,2.3-1,3.1c-0.7,0.8-1.5,1.2-2.7,1.2c-1.1,0-2-0.4-2.6-1.2c-0.7-0.8-1-1.8-1-3.1v-39.1c0-1.3,0.3-2.3,1-3.1
		c0.7-0.8,1.5-1.2,2.6-1.2c1.1,0,2,0.4,2.7,1.2c0.7,0.8,1,1.8,1,3.1v17.1l18-20.1c0.7-0.8,1.4-1.2,2.3-1.2s1.6,0.4,2.3,1.2
		c0.7,0.8,1,1.7,1,2.7c0,1-0.4,2-1.1,2.8L453,616.3l16,17.7C469.8,634.9,470.1,635.8,470.1,636.9z"/>
	<path class="st3" d="M507.6,637.4c0,1-0.3,1.9-1,2.5c-0.7,0.7-1.5,1-2.4,1c-0.6,0-1.2-0.2-1.7-0.5s-1-0.8-1.4-1.5l-7.4-13.5
		c-0.7-1.4-1.5-2.4-2.4-3s-1.9-0.9-3.3-0.9h-5.5v14.9c0,1.3-0.3,2.4-1,3.2c-0.6,0.8-1.5,1.2-2.6,1.2c-1.1,0-2-0.4-2.6-1.2
		c-0.7-0.8-1-1.8-1-3.2v-39c0-1.3,0.3-2.3,0.9-3c0.6-0.7,1.5-1.1,2.5-1.1h14c4.5,0,7.9,1.2,10.2,3.6c2.3,2.4,3.5,5.8,3.5,10.3
		c0,3.6-0.9,6.6-2.6,9c-1.7,2.3-4.2,3.8-7.4,4.5c1.1,0.3,2,0.9,2.9,1.7c0.8,0.8,1.6,1.9,2.4,3.3l5.1,9.3
		C507.4,635.9,507.6,636.7,507.6,637.4z M497.8,613.2c1.3-1.2,1.9-3.1,1.9-5.6c0-2.6-0.6-4.5-1.9-5.6c-1.3-1.2-3.3-1.8-6-1.8h-9.4
		v14.9h9.4C494.5,615.1,496.5,614.5,497.8,613.2z"/>
</g>
</svg>
