<?xml version="1.0" encoding="utf-8"?>
<!-- Generator: Adobe Illustrator 24.1.0, SVG Export Plug-In . SVG Version: 6.00 Build 0)  -->
<svg version="1.1" id="_x30_" xmlns="http://www.w3.org/2000/svg" xmlns:xlink="http://www.w3.org/1999/xlink" x="0px" y="0px"
	 viewBox="0 0 595.3 841.9" style="enable-background:new 0 0 595.3 841.9;" xml:space="preserve">
<style type="text/css">
	.st0{fill:url(#SVGID_1_);stroke:#000000;stroke-width:2;stroke-linecap:round;stroke-linejoin:round;}
	.st1{stroke:#000000;stroke-width:2;stroke-linecap:round;stroke-linejoin:round;}
</style>
<g id="SPLINE_1_">
	<linearGradient id="SVGID_1_" gradientUnits="userSpaceOnUse" x1="304.1627" y1="227.105" x2="304.1627" y2="567.377">
		<stop  offset="0" style="stop-color:#FF2A00"/>
		<stop  offset="1" style="stop-color:#A01414"/>
	</linearGradient>
	<path class="st0" d="M303.6,242.3c5.9-0.3,13.2-3.7,18.2-6.7c3.5-2.1,11.1-5.2,15-6.6l8.7-1.8c0,0,9.1-0.1,9.1-0.1l8.9,1.8
		c0,0,8.2,3.7,8.2,3.7s6.9,5.5,6.9,5.5s5.2,7,5.2,7s3.3,8.1,3.3,8.1s1.4,8.7,1.4,8.7c0.2,7.7-1.9,18-4.7,25.2
		c-4.2,10.5-10,22.7-7.4,34.3c2.4,9.6,8.6,19.8,13.5,28.3c11.8,20,14,37.2,5.2,58.9c-4.6,11-11.7,23.3-16,34.4l-2,8.1
		c0,0-0.2,8.1-0.2,8.1s1.8,8.4,1.8,8.4c3.2,8.6,8.8,19.9,11.9,28.5l2.8,10.6c0,0,1,10.8,1,10.8s-0.9,10.6-0.9,10.6l-2.7,10.1
		c0,0-4.3,9.1-4.3,9.1s-5.5,7.8-5.5,7.8l-6.3,6l-6.6,4l-6.5,1.9c0,0-6.3-0.2-6.3-0.2c-6.1-1.4-13.3-5.9-18.5-9.3
		c-9.3-5.8-20.5-12.3-31.7-12.9c-11.2,0.7-22.4,7.2-31.6,13.2c-5.1,3.4-12.3,8-18.4,9.4c0,0-6.3,0.3-6.3,0.3l-6.6-1.8
		c0,0-6.6-3.9-6.6-3.9s-6.3-6-6.3-6s-5.6-7.7-5.6-7.7s-4.4-9.1-4.4-9.1s-2.8-10.1-2.8-10.1l-1-10.6l1-10.8l2.7-10.6
		c3.1-8.7,8.5-20,11.7-28.6c0,0,1.8-8.4,1.8-8.4l-0.2-8.1l-2.1-8.1c-4.3-11.1-11.6-23.3-16.2-34.3c-9-21.6-6.9-38.8,4.7-58.9
		c4.8-8.5,11-18.7,13.2-28.4c2.5-11.6-3.4-23.8-7.7-34.3c-2.9-7.2-5.1-17.4-4.9-25.2c0,0,1.3-8.7,1.3-8.7s3.2-8.1,3.2-8.1l5.1-7
		l6.8-5.6l8.1-3.8l8.9-1.8c0,0,9.1,0,9.1,0l8.7,1.7c3.9,1.4,11.5,4.3,15,6.4C290.4,238.6,297.7,242,303.6,242.3z"/>
</g>
<g id="CIRCLE">
	<path class="st1" d="M257.3,294c0,5.9,4.8,10.6,10.6,10.6s10.6-4.8,10.6-10.6s-4.8-10.6-10.6-10.6S257.3,288.1,257.3,294L257.3,294
		L257.3,294z"/>
</g>
<g id="ELLIPSE">
	<path class="st1" d="M329.9,326.6c0-10.5-11.7-18.9-26.1-18.8c-14.4,0.1-26,8.6-25.9,19.1c0,10.5,11.7,18.9,26.1,18.8
		C318.4,345.6,330,337.1,329.9,326.6L329.9,326.6"/>
</g>
<g id="CIRCLE_1_">
	<path class="st1" d="M329,293.7c0,5.9,4.8,10.6,10.6,10.6s10.6-4.8,10.6-10.6s-4.8-10.6-10.6-10.6S329,287.8,329,293.7L329,293.7
		L329,293.7z"/>
</g>
<g id="ELLIPSE_1_">
	<path class="st1" d="M248.5,417.6c12.6,0,22.8-13.4,22.8-30c0-16.5-10.2-30-22.8-30c-12.6,0-22.8,13.4-22.8,30
		C225.7,404.2,235.9,417.6,248.5,417.6L248.5,417.6"/>
</g>
<g id="ELLIPSE_2_">
	<path class="st1" d="M360,417.1c12.6-0.1,22.7-13.6,22.6-30.1s-10.5-29.9-23.1-29.8c-12.6,0.1-22.7,13.6-22.6,30.1
		C337.1,403.9,347.4,417.2,360,417.1L360,417.1"/>
</g>
<g id="ELLIPSE_3_">
	<path class="st1" d="M253.4,550.2c12.6,0,22.8-13.4,22.8-30c0-16.5-10.2-30-22.8-30s-22.8,13.4-22.8,30
		C230.6,536.8,240.8,550.2,253.4,550.2L253.4,550.2"/>
</g>
<g id="ELLIPSE_4_">
	<path class="st1" d="M356.2,549.8c12.6-0.1,22.7-13.6,22.6-30.1c-0.1-16.5-10.5-29.9-23.1-29.8c-12.6,0.1-22.7,13.6-22.6,30.1
		C333.3,536.6,343.6,549.9,356.2,549.8L356.2,549.8"/>
</g>
</svg>
